#N canvas 0 23 450 300 12;
#X obj 53 102 metro 100;
#X obj 59 152 f;
#X obj 134 30 inlet;
#X obj 107 153 + 1;
#X obj 61 193 outlet;
#X obj 51 34 inlet;
#X obj 53 67 t b f;
#X msg 15 116 0;
#X connect 0 0 1 0;
#X connect 1 0 3 0;
#X connect 1 0 4 0;
#X connect 2 0 3 1;
#X connect 3 0 1 1;
#X connect 5 0 6 0;
#X connect 6 0 0 0;
#X connect 6 0 7 0;
#X connect 6 1 0 1;
#X connect 7 0 1 0;
