#N canvas 329 252 1058 522 12;
#X obj 356 222 noise~;
#X obj 422 225 line~;
#X obj 422 167 bng 15 250 50 0 empty empty empty 17 7 0 10 -262144
-1 -1;
#X obj 402 281 *~;
#X obj 454 290 hsl 128 15 0 0.3 0 0 empty empty empty -2 -8 0 10 -262144
-1 -1 9400 1;
#X obj 405 315 *~;
#X obj 360 251 pow~ 2;
#X obj 290 196 hsl 128 15 0 5 0 0 empty empty empty -2 -8 0 10 -262144
-1 -1 1600 1;
#X obj 411 344 *~;
#X obj 506 329 osc~ 92;
#X msg 422 194 0 \, 1 100;
#X obj 547 417 dac~;
#X msg 501 195 1 \, 0 500;
#X obj 503 239 line~;
#X obj 422 249 pow~ 3;
#N canvas 0 22 450 278 (subpatch) 0;
#X array array1 12 float 3;
#A 0 0.928572 0.7 0.414285 -0.342857 0.785717 0.785714 -0.542859 0.528574
-0.742857 0.157145 0.228573 -0.6;
#X coords 0 1 12 -1 200 140 1;
#X restore 153 -4 graph;
#X obj 422 77 tabread array1;
#X floatatom 421 55 5 0 0 0 - - -;
#X obj 421 -3 counter2;
#X obj 420 -28 hsl 128 15 0 500 0 0 empty empty empty -2 -8 0 10 -262144
-1 -1 5500 1;
#X obj 423 103 > 0;
#X obj 423 131 sel 1;
#X obj 421 26 mod 12;
#X obj 739 222 noise~;
#X obj 805 225 line~;
#X obj 805 167 bng 15 250 50 0 empty empty empty 17 7 0 10 -262144
-1 -1;
#X obj 785 281 *~;
#X obj 828 291 hsl 128 15 0 0.3 0 0 empty empty empty -2 -8 0 10 -262144
-1 -1 11000 1;
#X obj 788 315 *~;
#X obj 743 251 pow~ 2;
#X obj 673 196 hsl 128 15 0 5 0 0 empty empty empty -2 -8 0 10 -262144
-1 -1 1300 1;
#X obj 794 344 *~;
#X obj 889 329 osc~ 92;
#X msg 805 194 0 \, 1 100;
#X msg 884 195 1 \, 0 500;
#X obj 886 239 line~;
#X obj 805 249 pow~ 3;
#X floatatom 804 55 5 0 0 0 - - -;
#X obj 804 -3 counter2;
#X obj 806 103 > 0;
#X obj 806 131 sel 1;
#X obj 804 26 mod 12;
#N canvas 0 22 450 278 (subpatch) 0;
#X array array2 12 float 3;
#A 0 -0.628571 -0.671429 -0.585714 0.5 -0.714286 -0.657143 0.6 0.685714
-0.842857 0.785714 0.671429 0.728571;
#X coords 0 1 12 -1 200 140 1;
#X restore 569 4 graph;
#X obj 805 77 tabread array2;
#X msg 508 31 0;
#X msg 577 193 200 \, 0 800;
#X msg 960 193 200 \, 0 800;
#X obj 571 236 hsl 128 15 0 1000 0 0 empty empty empty -2 -8 0 10 -262144
-1 -1 8684 1;
#X msg 632 323 1 \, 0 \$1;
#X obj 942 118 + 1;
#X obj 938 141 * 500;
#X obj 852 364 hsl 128 15 0 1000 0 0 empty empty empty -2 -8 0 10 -262144
-1 -1 7946 1;
#X msg 911 451 1 \, 0 \$1;
#X obj 486 109 + 1;
#X obj 482 132 * 500;
#X msg 901 404 150 \, 0 \$1;
#X msg 622 276 200 \, 0 \$1;
#X connect 0 0 6 0;
#X connect 1 0 14 0;
#X connect 2 0 10 0;
#X connect 2 0 12 0;
#X connect 2 0 45 0;
#X connect 2 0 47 0;
#X connect 3 0 5 0;
#X connect 4 0 5 1;
#X connect 5 0 8 0;
#X connect 6 0 3 0;
#X connect 7 0 6 1;
#X connect 8 0 11 0;
#X connect 9 0 8 1;
#X connect 10 0 1 0;
#X connect 13 0 9 0;
#X connect 14 0 3 1;
#X connect 16 0 20 0;
#X connect 16 0 53 0;
#X connect 17 0 16 0;
#X connect 18 0 22 0;
#X connect 19 0 18 0;
#X connect 19 0 38 0;
#X connect 20 0 21 0;
#X connect 21 0 2 0;
#X connect 22 0 17 0;
#X connect 23 0 29 0;
#X connect 24 0 36 0;
#X connect 25 0 33 0;
#X connect 25 0 34 0;
#X connect 25 0 46 0;
#X connect 25 0 51 0;
#X connect 26 0 28 0;
#X connect 27 0 28 1;
#X connect 28 0 31 0;
#X connect 29 0 26 0;
#X connect 30 0 29 1;
#X connect 31 0 11 1;
#X connect 32 0 31 1;
#X connect 33 0 24 0;
#X connect 35 0 32 0;
#X connect 36 0 26 1;
#X connect 37 0 43 0;
#X connect 38 0 41 0;
#X connect 39 0 40 0;
#X connect 40 0 25 0;
#X connect 41 0 37 0;
#X connect 43 0 39 0;
#X connect 43 0 49 0;
#X connect 44 0 17 0;
#X connect 44 0 37 0;
#X connect 47 0 56 0;
#X connect 47 0 48 0;
#X connect 48 0 1 0;
#X connect 49 0 50 0;
#X connect 51 0 55 0;
#X connect 51 0 52 0;
#X connect 52 0 24 0;
#X connect 53 0 54 0;
#X connect 55 0 35 0;
#X connect 56 0 13 0;
