#N canvas 0 23 1024 700 10;
#X obj 84 241 bp~ 100 10;
#X obj 165 241 bp~ 200 10;
#X obj 247 241 bp~ 400 10;
#X obj 328 241 bp~ 800 10;
#X obj 413 240 bp~ 1000 10;
#X obj 495 240 bp~ 1200 10;
#X obj 577 240 bp~ 1400 10;
#X obj 658 240 bp~ 12600 10;
#X obj 502 27 vsl 15 128 0 10 0 0 empty empty empty 0 -8 0 10 -262144
-1 -1 12700 1;
#X obj 535 26 vsl 15 128 0 10 0 0 empty empty empty 0 -8 0 10 -262144
-1 -1 8812 1;
#X obj 576 26 vsl 15 128 0 10 0 0 empty empty empty 0 -8 0 10 -262144
-1 -1 8553 1;
#X obj 608 28 vsl 15 128 0 10 0 0 empty empty empty 0 -8 0 10 -262144
-1 -1 9331 1;
#X obj 641 27 vsl 15 128 0 10 0 0 empty empty empty 0 -8 0 10 -262144
-1 -1 5184 1;
#X obj 679 28 vsl 15 128 0 10 0 0 empty empty empty 0 -8 0 10 -262144
-1 -1 9849 1;
#X obj 715 29 vsl 15 128 0 10 0 0 empty empty empty 0 -8 0 10 -262144
-1 -1 9331 1;
#X obj 753 30 vsl 15 128 0 10 0 0 empty empty empty 0 -8 0 10 -262144
-1 -1 8294 1;
#X obj 83 379 *~ 0.5;
#X obj 161 380 *~ 0.5;
#X obj 246 382 *~ 0.5;
#X obj 335 382 *~ 0.5;
#X obj 413 383 *~ 0.5;
#X obj 498 385 *~ 0.5;
#X obj 581 383 *~ 0.5;
#X obj 666 385 *~ 0.5;
#X obj 372 502 *~ 0.5;
#X obj 497 -17 inlet;
#X obj 535 -18 inlet;
#X obj 576 -17 inlet;
#X obj 621 -17 inlet;
#X obj 665 -13 inlet;
#X obj 717 -9 inlet;
#X obj 766 -11 inlet;
#X obj 801 3 inlet;
#X obj 347 89 inlet~;
#X obj 372 523 outlet~;
#X obj 338 123 *~ 1;
#X connect 0 0 16 0;
#X connect 1 0 17 0;
#X connect 2 0 18 0;
#X connect 3 0 19 0;
#X connect 4 0 20 0;
#X connect 5 0 21 0;
#X connect 6 0 22 0;
#X connect 7 0 23 0;
#X connect 8 0 0 2;
#X connect 9 0 1 2;
#X connect 10 0 2 2;
#X connect 11 0 3 2;
#X connect 12 0 4 2;
#X connect 13 0 5 2;
#X connect 14 0 6 2;
#X connect 15 0 7 2;
#X connect 16 0 24 0;
#X connect 17 0 24 0;
#X connect 18 0 24 0;
#X connect 19 0 24 0;
#X connect 20 0 24 0;
#X connect 21 0 24 0;
#X connect 22 0 24 0;
#X connect 23 0 24 0;
#X connect 24 0 34 0;
#X connect 25 0 8 0;
#X connect 26 0 9 0;
#X connect 27 0 10 0;
#X connect 28 0 11 0;
#X connect 29 0 12 0;
#X connect 30 0 13 0;
#X connect 31 0 14 0;
#X connect 32 0 15 0;
#X connect 33 0 35 0;
#X connect 35 0 0 0;
#X connect 35 0 1 0;
#X connect 35 0 2 0;
#X connect 35 0 3 0;
#X connect 35 0 4 0;
#X connect 35 0 5 0;
#X connect 35 0 6 0;
#X connect 35 0 7 0;
