#N canvas 254 132 794 632 12;
#X obj 241 204 dac~;
#X obj 201 146 osc~ 440;
#X floatatom 177 32 5 0 0 0 - - -;
#X obj 190 59 mtof;
#X floatatom 440 -52 5 0 0 0 - - -;
#X obj 296 133 osc~ 440;
#X floatatom 291 17 5 0 0 0 - - -;
#X obj 291 58 mtof;
#X obj 307 -208 table sticky 16;
#X obj 292 -38 tabread sticky;
#X floatatom 292 -14 5 0 0 0 - - -;
#X floatatom 436 -208 5 0 0 0 - - -;
#X obj 301 -108 f;
#X obj 363 -108 + 1;
#X obj 306 -168 bng 15 250 50 0 empty empty empty 17 7 0 10 -262144
-1 -1;
#X obj 302 -77 % 16;
#X obj 302 -141 metro 200;
#X obj 548 -40 osc~ 10;
#X obj 254 98 + 10;
#X obj 131 203 sin;
#X floatatom 130 228 5 0 0 0 - - -;
#X floatatom 83 130 5 0 0 0 - - -;
#X obj 138 261 * 30;
#X obj 171 305 + 65;
#X obj 125 177 * 0.5;
#X obj 199 93 * 0.2;
#X obj 449 106 sin;
#X floatatom 448 131 5 0 0 0 - - -;
#X obj 456 199 + 95;
#X obj 456 164 * 50;
#X obj 443 80 * 0.4;
#X obj 344 176 mtof;
#X obj 323 222 osc~ 1;
#X obj 26 -243 tgl 15 0 empty empty empty 17 7 0 10 -262144 -1 -1 0
1;
#X obj 108 -146 vsl 15 128 0 127 0 0 empty empty empty 0 -9 0 10 -262144
-1 -1 1600 1;
#X obj 25 25 * 0.01;
#X obj 172 -210 vsl 15 128 0 127 0 0 empty empty empty 0 -9 0 10 -262144
-1 -1 9300 1;
#X obj 178 -52 * 4;
#X msg 306 -246 \; sticky 0 32 43 55 30 35 32 65 48 25 13 40;
#X connect 1 0 0 0;
#X connect 2 0 3 0;
#X connect 3 0 25 0;
#X connect 5 0 0 1;
#X connect 6 0 7 0;
#X connect 7 0 5 0;
#X connect 7 0 18 0;
#X connect 9 0 10 0;
#X connect 10 0 6 0;
#X connect 12 0 13 0;
#X connect 12 0 15 0;
#X connect 12 0 24 0;
#X connect 12 0 30 0;
#X connect 13 0 12 1;
#X connect 14 0 16 0;
#X connect 15 0 4 0;
#X connect 15 0 9 0;
#X connect 16 0 12 0;
#X connect 18 0 1 0;
#X connect 19 0 20 0;
#X connect 20 0 22 0;
#X connect 22 0 18 1;
#X connect 22 0 23 0;
#X connect 23 0 2 0;
#X connect 24 0 19 0;
#X connect 25 0 1 0;
#X connect 26 0 27 0;
#X connect 27 0 29 0;
#X connect 28 0 31 0;
#X connect 29 0 28 0;
#X connect 30 0 26 0;
#X connect 31 0 32 0;
#X connect 32 0 0 1;
#X connect 34 0 35 0;
#X connect 35 0 21 0;
#X connect 35 0 24 1;
#X connect 36 0 37 0;
#X connect 37 0 16 1;
