#N canvas 631 144 670 300 12;
#X obj 88 -60 list trim;
#X obj 84 -93 receive fromGUI;
#X obj 166 23 osc~;
#X obj 233 13 osc~;
#X obj 194 131 dac~;
#X obj 91 -36 route /mySlider1 /mySlider2 /mySlider3 /mySlider4;
#X obj 177 87 *~;
#X obj 282 36 osc~;
#X obj 349 26 osc~;
#X obj 293 100 *~;
#X connect 0 0 5 0;
#X connect 1 0 0 0;
#X connect 2 0 6 0;
#X connect 3 0 6 1;
#X connect 5 0 2 0;
#X connect 5 1 3 0;
#X connect 5 2 7 0;
#X connect 5 3 8 0;
#X connect 6 0 4 0;
#X connect 7 0 9 0;
#X connect 8 0 9 1;
#X connect 9 0 4 1;
