#N canvas 14 23 1320 820 12;
#X obj 125 235 osc~;
#X obj 170 233 osc~;
#X obj 227 235 osc~;
#X obj 124 161 + 0;
#X obj 126 355 +~;
#X obj 228 283 *~ 0.25;
#X obj 295 232 osc~;
#X obj 296 283 *~ 0.125;
#X obj 120 33 inlet;
#X obj 126 395 outlet~;
#X obj 170 198 * 2;
#X obj 227 199 * 3;
#X obj 295 199 * 4;
#X obj 369 232 osc~;
#X obj 369 198 * 5;
#X obj 370 283 *~ 0.0625;
#X obj 171 283 *~ 0.5;
#X obj 138 71 f;
#X obj 138 121 line;
#X msg 138 96 \$1 10;
#X connect 0 0 4 0;
#X connect 1 0 16 0;
#X connect 2 0 5 0;
#X connect 3 0 0 0;
#X connect 3 0 10 0;
#X connect 3 0 11 0;
#X connect 3 0 12 0;
#X connect 3 0 14 0;
#X connect 4 0 9 0;
#X connect 5 0 4 0;
#X connect 6 0 7 0;
#X connect 7 0 4 0;
#X connect 8 0 17 0;
#X connect 10 0 1 0;
#X connect 11 0 2 0;
#X connect 12 0 6 0;
#X connect 13 0 15 0;
#X connect 14 0 13 0;
#X connect 15 0 4 0;
#X connect 16 0 4 0;
#X connect 17 0 19 0;
#X connect 18 0 3 0;
#X connect 19 0 18 0;
