#N canvas 4 44 1320 820 12;
#X obj 612 20 bng 15 250 50 0 empty empty reset 17 7 0 10 -262144 -1
-1;
#X obj 455 728 osc~;
#X obj 717 694 dac~;
#X obj 500 726 osc~;
#X obj 557 728 osc~;
#X obj 617 85 bng 15 250 50 0 empty empty empty 17 7 0 10 -262144 -1
-1;
#X floatatom 615 301 5 0 0 0 - - -;
#X obj 616 141 i;
#X obj 666 141 + 1;
#X floatatom 617 193 5 0 0 0 - - -;
#X obj 616 244 expr ($f1+1)*10;
#X obj 455 660 + 0;
#X obj 616 270 mod 20;
#X obj 456 795 +~;
#X obj 485 759 *~ 0.95;
#X obj 556 760 *~ 0.25;
#X floatatom 910 279 5 0 0 0 - - -;
#X obj 907 121 i;
#X obj 957 121 + 1;
#X floatatom 907 172 5 0 0 0 - - -;
#X obj 907 224 expr ($f1+1)*10;
#X obj 907 250 mod 20;
#X obj 912 73 bng 15 250 50 0 empty empty empty 17 7 0 10 -262144 -1
-1;
#X obj 903 35 metro 200;
#X obj 681 9 hsl 128 15 100 1000 0 0 empty empty tempo 2 8 0 10 -33289
-262144 -262144 1900 1;
#X obj 455 697 * 50;
#X obj 505 697 * 100;
#X obj 556 697 * 200;
#X obj 1014 45 hsl 128 15 0.9 1.1 0 0 empty empty empty -2 -8 0 10
-262144 -1 -1 5500 1;
#X floatatom 1005 73 5 0 0 0 - - -;
#N canvas 0 22 450 278 (subpatch) 0;
#X array array3 12 float 3;
#A 0 -0.119 -0.411 -0.147 -0.000999928 0.00600004 -0.71 -0.601 -0.1
-0.709 -0.65 -0.122 -0.632;
#X coords 0 1 12 -1 400 140 1 0 0;
#X restore 33 427 graph;
#X obj 616 218 tabread array3;
#X obj 907 198 tabread array3;
#X obj 610 49 metro 200;
#X floatatom 755 142 5 0 0 0 - - -;
#X obj 758 110 *;
#X obj 747 65 bng 15 250 50 0 empty empty empty 17 7 0 10 -262144 -1
-1;
#X floatatom 497 387 5 0 0 0 - - -;
#N canvas 0 22 450 278 (subpatch) 0;
#X array array4 12 float 3;
#A 0 -0.786 -0.502 0.292 0.99 -0.384 -0.226 -0.816 0.342 0.994 -0.786
-0.962 0.556;
#X coords 0 1 12 -1 400 140 1 0 0;
#X restore 33 602 graph;
#X obj 495 332 tabread array4;
#X obj 620 610 *~;
#X obj 495 358 expr ($f1+1)*.5;
#X floatatom 1192 400 5 0 0 0 - - -;
#X obj 1192 348 tabread array4;
#X obj 923 613 *~;
#X obj 1192 374 expr ($f1+1)*.5;
#X floatatom 683 78 5 0 0 0 - - -;
#X obj 778 60 t b f;
#X floatatom 512 506 5 0 0 0 - - -;
#X floatatom 1217 544 5 0 0 0 - - -;
#X floatatom 618 400 5 0 0 0 - - -;
#X obj 618 325 f;
#X floatatom 912 382 5 0 0 0 - - -;
#X obj 912 307 f;
#X floatatom 494 302 5 0 0 0 - - -;
#X floatatom 1192 323 5 0 0 0 - - -;
#X obj 495 468 vline~;
#X obj 1196 503 vline~;
#X obj 618 375 line;
#X obj 912 357 line;
#X obj 493 277 mod 12;
#X obj 616 168 mod 12;
#X obj 903 147 mod 12;
#X obj 1192 297 mod 12;
#X obj 625 725 osc~;
#X obj 624 694 * 400;
#X obj 624 757 *~ 0.125;
#X obj 44 70 bng 15 250 50 0 empty empty empty 17 7 0 10 -262144 -1
-1;
#X obj 101 98 random 1000;
#X floatatom 98 126 5 0 0 0 - - -;
#X msg 37 233 bang;
#X obj 37 291 until;
#X msg 45 260 3;
#X obj 37 319 f;
#X obj 75 319 + 1;
#X obj 120 318 sel 0;
#X obj 37 373 print;
#X obj 92 207 tabwrite array3;
#X obj 75 345 mod 12;
#X obj 191 253 tabwrite array4;
#X obj 445 38 hsl 128 15 4 12 0 0 empty empty mod 2 8 0 10 -262144
-1 -1 3500 1;
#X floatatom 446 98 5 0 0 0 - - -;
#X obj 446 66 i;
#X floatatom 251 117 5 0 0 0 - - -;
#X obj 251 144 * 0.002;
#X obj 252 171 - 1;
#X obj 251 89 random 1000;
#X msg 839 10 stop;
#X obj 98 153 * 0.001;
#X obj 99 180 - 0.9;
#X obj 620 634 *~;
#X obj 923 637 *~;
#X obj 724 596 hsl 128 15 0 1 0 0 empty empty volume -2 -8 0 10 -262144
-1 -1 3600 1;
#X obj 237 293 noise~;
#X obj 320 300 line~;
#X obj 320 242 bng 15 250 50 0 empty empty empty 17 7 0 10 -262144
-1 -1;
#X obj 300 356 *~;
#X obj 352 365 hsl 128 15 0 0.3 0 0 empty empty empty -2 -8 0 10 -262144
-1 -1 7300 1;
#X obj 324 396 *~;
#X obj 217 337 pow~ 2;
#X obj 160 396 hsl 128 15 0 5 0 0 empty empty empty -2 -8 0 10 -262144
-1 -1 2300 1;
#X obj 320 211 sel 10 9 8 7;
#X obj 45 14 bng 15 250 50 0 empty empty reset 17 7 0 10 -262144 -1
-1;
#X msg 496 416 \$1 10;
#X msg 1193 434 \$1 10;
#N canvas 972 146 450 300 multiosc 1;
#X obj 120 135 osc~;
#X obj 165 133 osc~;
#X obj 222 135 osc~;
#X obj 120 67 + 0;
#X obj 121 202 +~;
#X obj 221 167 *~ 0.25;
#X obj 290 132 osc~;
#X obj 289 169 *~ 0.125;
#X obj 120 33 inlet;
#X obj 119 242 outlet~;
#X obj 170 104 * 2;
#X obj 364 132 osc~;
#X obj 363 169 *~ 0.0625;
#X obj 150 166 *~ 0.5;
#X obj 221 104 * 4;
#X obj 289 101 * 8;
#X obj 363 101 * 16;
#X connect 0 0 4 0;
#X connect 1 0 13 0;
#X connect 2 0 5 0;
#X connect 3 0 0 0;
#X connect 3 0 10 0;
#X connect 3 0 14 0;
#X connect 3 0 15 0;
#X connect 3 0 16 0;
#X connect 4 0 9 0;
#X connect 5 0 4 0;
#X connect 6 0 7 0;
#X connect 7 0 4 0;
#X connect 8 0 3 0;
#X connect 10 0 1 0;
#X connect 11 0 12 0;
#X connect 12 0 4 0;
#X connect 13 0 4 0;
#X connect 14 0 2 0;
#X connect 15 0 6 0;
#X connect 16 0 11 0;
#X restore 625 517 pd multiosc;
#N canvas 0 23 450 300 multiosc 1;
#X obj 120 135 osc~;
#X obj 165 133 osc~;
#X obj 222 135 osc~;
#X obj 120 67 + 0;
#X obj 121 202 +~;
#X obj 221 167 *~ 0.25;
#X obj 290 132 osc~;
#X obj 289 169 *~ 0.125;
#X obj 120 33 inlet;
#X obj 119 242 outlet~;
#X obj 170 104 * 2;
#X obj 364 132 osc~;
#X obj 363 169 *~ 0.0625;
#X obj 150 166 *~ 0.5;
#X obj 221 104 * 4;
#X obj 289 101 * 8;
#X obj 363 101 * 16;
#X connect 0 0 4 0;
#X connect 1 0 13 0;
#X connect 2 0 5 0;
#X connect 3 0 0 0;
#X connect 3 0 10 0;
#X connect 3 0 14 0;
#X connect 3 0 15 0;
#X connect 3 0 16 0;
#X connect 4 0 9 0;
#X connect 5 0 4 0;
#X connect 6 0 7 0;
#X connect 7 0 4 0;
#X connect 8 0 3 0;
#X connect 10 0 1 0;
#X connect 11 0 12 0;
#X connect 12 0 4 0;
#X connect 13 0 4 0;
#X connect 14 0 2 0;
#X connect 15 0 6 0;
#X connect 16 0 11 0;
#X restore 912 519 pd multiosc;
#X obj 320 324 pow~ 5;
#X obj 349 84 i;
#X floatatom 364 166 5 0 0 0 - - -;
#X obj 327 58 random 3;
#X obj 45 41 metro 10000;
#X obj 350 132 * 50;
#X obj 350 108 + 3;
#X msg 912 332 \$1 20;
#X msg 618 350 \$1 20;
#X obj 458 419 *~;
#X obj 626 490 * 50;
#X obj 913 492 * 50;
#X msg 778 468 start;
#X msg 813 502 stop;
#X msg 741 428 open pdtest.wav;
#X obj 753 396;
#X obj 739 353 bng 15 250 50 0 empty empty empty 17 7 0 10 -262144
-1 -1;
#X obj 762 541 writesf~ 2;
#X obj 429 390 osc~ 92;
#X msg 320 269 0 \, 1 100;
#X msg 399 270 1 \, 0 300;
#X obj 798 368 delay 200000;
#X connect 0 0 23 0;
#X connect 0 0 33 0;
#X connect 1 0 13 0;
#X connect 3 0 14 0;
#X connect 4 0 15 0;
#X connect 5 0 7 0;
#X connect 6 0 51 0;
#X connect 6 0 101 0;
#X connect 7 0 8 0;
#X connect 7 0 60 0;
#X connect 7 0 61 0;
#X connect 8 0 7 1;
#X connect 9 0 31 0;
#X connect 10 0 12 0;
#X connect 11 0 25 0;
#X connect 11 0 26 0;
#X connect 11 0 27 0;
#X connect 11 0 65 0;
#X connect 12 0 6 0;
#X connect 14 0 13 0;
#X connect 15 0 13 0;
#X connect 16 0 53 0;
#X connect 17 0 18 0;
#X connect 17 0 62 0;
#X connect 17 0 63 0;
#X connect 18 0 17 1;
#X connect 19 0 32 0;
#X connect 20 0 21 0;
#X connect 21 0 16 0;
#X connect 22 0 17 0;
#X connect 23 0 22 0;
#X connect 24 0 33 1;
#X connect 24 0 35 0;
#X connect 24 0 46 0;
#X connect 25 0 1 0;
#X connect 26 0 3 0;
#X connect 27 0 4 0;
#X connect 28 0 29 0;
#X connect 28 0 47 0;
#X connect 31 0 10 0;
#X connect 32 0 20 0;
#X connect 33 0 5 0;
#X connect 35 0 34 0;
#X connect 35 0 23 1;
#X connect 36 0 35 0;
#X connect 37 0 103 0;
#X connect 39 0 41 0;
#X connect 40 0 90 0;
#X connect 41 0 37 0;
#X connect 42 0 104 0;
#X connect 43 0 45 0;
#X connect 44 0 91 0;
#X connect 45 0 42 0;
#X connect 47 0 35 0;
#X connect 47 1 35 1;
#X connect 50 0 117 0;
#X connect 51 0 115 0;
#X connect 52 0 118 0;
#X connect 53 0 114 0;
#X connect 54 0 39 0;
#X connect 55 0 43 0;
#X connect 56 0 48 0;
#X connect 56 0 40 1;
#X connect 57 0 49 0;
#X connect 57 0 44 1;
#X connect 58 0 50 0;
#X connect 59 0 52 0;
#X connect 60 0 54 0;
#X connect 61 0 9 0;
#X connect 62 0 19 0;
#X connect 63 0 55 0;
#X connect 64 0 66 0;
#X connect 65 0 64 0;
#X connect 66 0 13 0;
#X connect 67 0 68 0;
#X connect 67 0 70 0;
#X connect 67 0 86 0;
#X connect 67 0 110 0;
#X connect 68 0 69 0;
#X connect 69 0 88 0;
#X connect 70 0 71 0;
#X connect 71 0 73 0;
#X connect 71 0 68 0;
#X connect 71 0 86 0;
#X connect 72 0 71 0;
#X connect 73 0 74 0;
#X connect 73 0 76 0;
#X connect 73 0 77 1;
#X connect 73 0 79 1;
#X connect 74 0 78 0;
#X connect 75 0 71 1;
#X connect 78 0 73 1;
#X connect 78 0 75 0;
#X connect 80 0 82 0;
#X connect 81 0 61 1;
#X connect 81 0 62 1;
#X connect 81 0 63 1;
#X connect 81 0 60 1;
#X connect 82 0 81 0;
#X connect 83 0 84 0;
#X connect 84 0 85 0;
#X connect 85 0 79 0;
#X connect 86 0 83 0;
#X connect 87 0 23 0;
#X connect 87 0 33 0;
#X connect 88 0 89 0;
#X connect 89 0 77 0;
#X connect 90 0 2 0;
#X connect 90 0 124 0;
#X connect 91 0 2 1;
#X connect 91 0 124 1;
#X connect 92 0 90 1;
#X connect 92 0 91 1;
#X connect 93 0 99 0;
#X connect 94 0 107 0;
#X connect 95 0 126 0;
#X connect 95 0 127 0;
#X connect 95 0 125 1;
#X connect 96 0 98 0;
#X connect 97 0 98 1;
#X connect 98 0 116 0;
#X connect 99 0 96 0;
#X connect 100 0 99 1;
#X connect 101 0 95 0;
#X connect 101 1 95 0;
#X connect 102 0 111 0;
#X connect 103 0 56 0;
#X connect 104 0 57 0;
#X connect 105 0 40 0;
#X connect 106 0 44 0;
#X connect 107 0 96 1;
#X connect 108 0 113 0;
#X connect 110 0 108 0;
#X connect 111 0 67 0;
#X connect 112 0 109 0;
#X connect 113 0 112 0;
#X connect 114 0 59 0;
#X connect 115 0 58 0;
#X connect 117 0 105 0;
#X connect 118 0 106 0;
#X connect 119 0 124 0;
#X connect 120 0 124 0;
#X connect 121 0 124 0;
#X connect 123 0 121 0;
#X connect 123 0 119 0;
#X connect 123 0 128 0;
#X connect 125 0 116 1;
#X connect 126 0 94 0;
#X connect 127 0 94 0;
#X connect 128 0 120 0;
