#N canvas 141 218 450 300 12;
#X obj 162 107 inlet;
#X obj 166 167 metro 100;
#X obj 172 217 f;
#X obj 279 108 inlet;
#X obj 220 218 + 1;
#X obj 178 261 outlet;
#X obj 222 108 inlet;
#X connect 1 0 2 0;
#X connect 2 0 4 0;
#X connect 2 0 5 0;
#X connect 4 0 2 1;
#X connect 6 0 1 1;
